<svg viewBox="0 0 43 49" xmlns="http://www.w3.org/2000/svg">
  <path fill="#8155FF" d="M24.617 2.388h-6.325v4.265h6.325V2.388z"/>
  <path fill="#CA86FF" d="M25.592 3.495h-8.275c-.452 0-.886-.184-1.205-.512-.32-.327-.5-.771-.5-1.234 0-.463.18-.908.5-1.236.32-.328.753-.512 1.205-.513h8.275c.453 0 .886.185 1.206.513.32.328.5.773.5 1.236 0 .463-.18.907-.5 1.234-.32.328-.754.512-1.206.512z"/>
  <path fill="#8155FF" d="M6.118 8.86L2.55 12.51l2.515 2.576 3.567-3.652L6.118 8.86z"/>
  <path fill="#CA86FF" d="M7.242 8.708l-4.981 5.1a1.272 1.272 0 01-.91.385c-.34 0-.668-.139-.909-.385a1.334 1.334 0 01-.376-.931c0-.35.135-.684.376-.931l4.984-5.1a1.27 1.27 0 01.908-.385c.34 0 .667.138.908.385.24.247.376.582.376.93 0 .35-.135.685-.376.932z"/>
  <path fill="#CA86FF" d="M21.378 48.593c11.807 0 21.378-9.8 21.378-21.889 0-12.089-9.571-21.889-21.378-21.889S0 14.615 0 26.704c0 12.089 9.571 21.889 21.378 21.889z"/>
  <path fill="#5C1CFF" d="M21.38 47.416c11.171 0 20.228-9.273 20.228-20.712S32.55 5.993 21.379 5.993c-11.172 0-20.228 9.272-20.228 20.711 0 11.439 9.056 20.712 20.228 20.712z"/>
  <path fill="#fff" d="M21.378 45.077c9.91 0 17.944-8.226 17.944-18.372 0-10.147-8.033-18.373-17.944-18.373-9.91 0-17.943 8.226-17.943 18.372 0 10.147 8.033 18.373 17.944 18.373z"/>
  <path fill="#5C1CFF" d="M21.484 12.471a.449.449 0 01-.318-.136.47.47 0 01-.133-.325v-1.086a.467.467 0 01.154-.279.447.447 0 01.587 0c.083.072.137.17.155.28v1.085a.47.47 0 01-.131.323.448.448 0 01-.314.138zM21.484 43.16a.45.45 0 01-.32-.138.47.47 0 01-.131-.327V41.63a.467.467 0 01.154-.28.447.447 0 01.587 0c.083.072.137.171.155.28v1.085a.47.47 0 01-.137.312.45.45 0 01-.308.132zM11.244 16.807a.457.457 0 01-.32-.134l-.75-.768a.469.469 0 010-.654.447.447 0 01.64 0l.75.767a.466.466 0 01.098.504.46.46 0 01-.167.208.443.443 0 01-.251.077zM32.442 38.512a.43.43 0 01-.316-.135l-.75-.767a.46.46 0 01-.14-.328.47.47 0 01.132-.332.453.453 0 01.323-.136.442.442 0 01.321.142l.75.767a.46.46 0 01.133.327.472.472 0 01-.133.327.44.44 0 01-.32.135zM10.493 38.512a.443.443 0 01-.251-.077.46.46 0 01-.193-.475.464.464 0 01.124-.237l.75-.767a.454.454 0 01.32-.136.444.444 0 01.319.136.465.465 0 01.098.504.463.463 0 01-.098.15l-.75.768a.437.437 0 01-.32.134zM31.692 16.807a.444.444 0 01-.25-.078.46.46 0 01-.19-.475.466.466 0 01.124-.236l.75-.767a.446.446 0 01.63.008.467.467 0 01.005.646l-.749.768a.451.451 0 01-.32.134zM7.01 27.276H5.954a.441.441 0 01-.351-.114.461.461 0 01-.151-.345.47.47 0 01.15-.345.447.447 0 01.352-.114h1.06a.44.44 0 01.352.114.461.461 0 01.151.345.47.47 0 01-.15.345.45.45 0 01-.353.114H7.01zM36.99 27.276h-1.06a.441.441 0 01-.352-.114.461.461 0 01-.151-.345.471.471 0 01.15-.345.447.447 0 01.352-.114h1.06c.11.014.212.067.285.152a.468.468 0 010 .614.447.447 0 01-.284.152z"/>
  <path fill="#8054FF" d="M22.55 26.65h-2.16v-9.582c0-.293.114-.574.316-.78a1.065 1.065 0 011.526-.002 1.105 1.105 0 01.317.782v9.582z"/>
  <path fill="#5C1CFF" d="M21.469 29.171c1.365 0 2.472-1.133 2.472-2.531 0-1.399-1.107-2.532-2.472-2.532-1.366 0-2.473 1.133-2.473 2.532 0 1.398 1.107 2.531 2.473 2.531z"/>
</svg>